# xmcd
#
# Track frame offsets: 
#        150
#        103598
#        169066
#        226234
#        248483
#        274645
#        291845
#
# Disc length: 4222 seconds
#
# Revision: 1
# Processed by: cddbd v1.5.2PL0 Copyright (c) Steve Scherf et al.
# Submitted via: ExactAudioCopy v1.0b3
#
DISCID=55107c07
DTITLE=Arthur Rubinstein (piano), Israel Philharmonic Orchetra - Brahm
DTITLE=s‧Piano Concerto No.1
DYEAR=1976
DGENRE=Classical
TTITLE0=Brahms‧Piano Concerto No.1 in D minor, Op.15：I. Maestoso
TTITLE1=Brahms‧Piano Concerto No.1 in D minor, Op.15：II. Adagio
TTITLE2=Brahms‧Piano Concerto No.1 in D minor, Op.15：III. Rondo：Allegr
TTITLE2=o non troppo
TTITLE3=Brahms‧4 Ballades, Op.10：No.1 in D minor
TTITLE4=Brahms‧4 Ballades, Op.10：No.2 in D major
TTITLE5=Brahms‧4 Ballades, Op.10：No.3 in B minor
TTITLE6=Brahms‧4 Ballades, Op.10：No.4 in B major
EXTD=
EXTT0=
EXTT1=
EXTT2=
EXTT3=
EXTT4=
EXTT5=
EXTT6=
PLAYORDER=
